# Blender v2.93.5 OBJ File: 'bin.blend'
# www.blender.org
mtllib bin.mtl
o Cylinder
v -0.051707 0.000000 -0.935437
v 0.123318 0.000000 -0.916891
v 0.291617 0.000000 -0.861964
v 0.446723 0.000000 -0.772767
v 0.582674 0.000000 -0.652729
v 0.694246 0.000000 -0.506463
v 0.777151 0.000000 -0.339588
v 0.828204 0.000000 -0.158518
v 0.845443 0.000000 0.029788
v 0.828204 0.000000 0.218094
v 0.777151 0.000000 0.399163
v 0.694246 0.000000 0.566038
v 0.582674 0.000000 0.712304
v 0.446723 0.000000 0.832343
v 0.291617 0.000000 0.921539
v 0.123318 0.000000 0.976466
v -0.051707 0.000000 0.995012
v -0.226732 0.000000 0.976466
v -0.395032 0.000000 0.921539
v -0.550137 0.000000 0.832343
v -0.686088 0.000000 0.712305
v -0.797660 0.000000 0.566038
v -0.880566 0.000000 0.399163
v -0.931619 0.000000 0.218094
v -0.948857 0.000000 0.029788
v -0.931619 0.000000 -0.158519
v -0.880566 0.000000 -0.339588
v -0.797660 0.000000 -0.506462
v -0.686088 0.000000 -0.652729
v -0.550137 0.000000 -0.772767
v -0.395032 0.000000 -0.861964
v -0.226732 0.000000 -0.916891
v -0.051707 2.361177 -0.460832
v -0.051707 1.889214 -0.935437
v 0.024148 2.361177 -0.452794
v 0.123318 1.889214 -0.916891
v 0.098714 2.361177 -0.428458
v 0.291617 1.889214 -0.861964
v 0.170096 2.361177 -0.387409
v 0.446723 1.889214 -0.772767
v 0.235540 2.361177 -0.329625
v 0.582674 1.889214 -0.652729
v 0.291639 2.361177 -0.256081
v 0.694246 1.889214 -0.506463
v 0.334863 2.361177 -0.169080
v 0.777151 1.889214 -0.339588
v 0.362166 2.361177 -0.072242
v 0.828204 1.889214 -0.158518
v 0.371507 2.361177 0.029788
v 0.845443 1.889214 0.029788
v 0.362166 2.361177 0.131817
v 0.828204 1.889214 0.218094
v 0.334863 2.361177 0.228654
v 0.777151 1.889214 0.399163
v 0.291639 2.361177 0.315656
v 0.694246 1.889214 0.566038
v 0.235540 2.361177 0.389200
v 0.582674 1.889214 0.712304
v 0.170096 2.361177 0.446984
v 0.446723 1.889214 0.832343
v 0.098714 2.361177 0.488034
v 0.291617 1.889214 0.921539
v 0.024148 2.361177 0.512369
v 0.123318 1.889214 0.976466
v -0.051707 2.361177 0.520407
v -0.051707 1.889214 0.995012
v -0.127562 2.361177 0.512369
v -0.226732 1.889214 0.976466
v -0.202128 2.361177 0.488034
v -0.395032 1.889214 0.921539
v -0.273510 2.361177 0.446984
v -0.550137 1.889214 0.832343
v -0.338954 2.361177 0.389200
v -0.686088 1.889214 0.712305
v -0.395054 2.361177 0.315656
v -0.797660 1.889214 0.566038
v -0.438277 2.361177 0.228655
v -0.880566 1.889214 0.399163
v -0.465581 2.361177 0.131817
v -0.931619 1.889214 0.218094
v -0.474921 2.361177 0.029788
v -0.948857 1.889214 0.029788
v -0.465581 2.361177 -0.072242
v -0.931619 1.889214 -0.158519
v -0.438277 2.361177 -0.169080
v -0.880566 1.889214 -0.339588
v -0.395054 2.361177 -0.256080
v -0.797660 1.889214 -0.506462
v -0.338954 2.361177 -0.329625
v -0.686088 1.889214 -0.652729
v -0.273510 2.361177 -0.387409
v -0.550137 1.889214 -0.772767
v -0.202128 2.361177 -0.428459
v -0.395032 1.889214 -0.861964
v -0.127562 2.361177 -0.452794
v -0.226732 1.889214 -0.916891
vt 0.031250 0.500000
vt 0.031250 0.900058
vt 0.000000 0.900058
vt 0.000000 0.500000
vt 0.937500 0.500000
vt 0.937500 0.900058
vt 0.906250 0.900058
vt 0.906250 0.500000
vt 0.875000 0.900058
vt 0.875000 0.500000
vt 0.843750 0.900058
vt 0.843750 0.500000
vt 0.812500 0.900058
vt 0.812500 0.500000
vt 0.781250 0.900058
vt 0.781250 0.500000
vt 0.750000 0.900058
vt 0.750000 0.500000
vt 0.718750 0.900058
vt 0.718750 0.500000
vt 0.687500 0.900058
vt 0.687500 0.500000
vt 0.656250 0.900058
vt 0.656250 0.500000
vt 0.625000 0.900058
vt 0.625000 0.500000
vt 0.593750 0.900058
vt 0.593750 0.500000
vt 0.562500 0.900058
vt 0.562500 0.500000
vt 0.531250 0.900058
vt 0.531250 0.500000
vt 0.500000 0.900058
vt 0.500000 0.500000
vt 0.468750 0.900058
vt 0.468750 0.500000
vt 0.437500 0.900058
vt 0.437500 0.500000
vt 0.406250 0.900058
vt 0.406250 0.500000
vt 0.375000 0.900058
vt 0.375000 0.500000
vt 0.343750 0.900058
vt 0.343750 0.500000
vt 0.312500 0.900058
vt 0.312500 0.500000
vt 0.281250 0.900058
vt 0.281250 0.500000
vt 0.250000 0.900058
vt 0.250000 0.500000
vt 0.218750 0.900058
vt 0.218750 0.500000
vt 0.187500 0.900058
vt 0.187500 0.500000
vt 0.156250 0.900058
vt 0.156250 0.500000
vt 0.125000 0.900058
vt 0.125000 0.500000
vt 0.093750 0.900058
vt 0.093750 0.500000
vt 0.062500 0.900058
vt 0.062500 0.500000
vt 1.000000 0.500000
vt 1.000000 0.900058
vt 0.968750 0.900058
vt 0.968750 0.500000
vt 0.750000 0.490000
vt 0.796822 0.485388
vt 0.841844 0.471731
vt 0.883337 0.449553
vt 0.919706 0.419706
vt 0.949553 0.383337
vt 0.971731 0.341844
vt 0.985388 0.296822
vt 0.990000 0.250000
vt 0.985388 0.203178
vt 0.971731 0.158156
vt 0.949553 0.116663
vt 0.919706 0.080294
vt 0.883337 0.050447
vt 0.841844 0.028269
vt 0.796822 0.014612
vt 0.750000 0.010000
vt 0.703178 0.014612
vt 0.658156 0.028269
vt 0.616663 0.050447
vt 0.580294 0.080294
vt 0.550447 0.116663
vt 0.528269 0.158156
vt 0.514612 0.203178
vt 0.510000 0.250000
vt 0.514612 0.296822
vt 0.528269 0.341844
vt 0.550447 0.383337
vt 0.580294 0.419706
vt 0.616663 0.449553
vt 0.658156 0.471731
vt 0.703178 0.485388
vt 0.991120 1.000000
vt 0.977577 1.000000
vt 0.959975 1.000000
vt 0.946129 1.000000
vt 0.928962 1.000000
vt 0.914580 1.000000
vt 0.898032 1.000000
vt 0.882989 1.000000
vt 0.867124 1.000000
vt 0.851412 1.000000
vt 0.836186 1.000000
vt 0.819894 1.000000
vt 0.805177 1.000000
vt 0.788464 1.000000
vt 0.774072 1.000000
vt 0.757140 1.000000
vt 0.742860 1.000000
vt 0.725927 1.000000
vt 0.711536 1.000000
vt 0.694823 1.000000
vt 0.680106 1.000000
vt 0.663814 1.000000
vt 0.648588 1.000000
vt 0.632876 1.000000
vt 0.617011 1.000000
vt 0.601968 1.000000
vt 0.585420 1.000000
vt 0.571038 1.000000
vt 0.553871 1.000000
vt 0.540025 1.000000
vt 0.522423 1.000000
vt 0.508880 1.000000
vt 0.491120 1.000000
vt 0.477577 1.000000
vt 0.459975 1.000000
vt 0.446129 1.000000
vt 0.428962 1.000000
vt 0.414580 1.000000
vt 0.398032 1.000000
vt 0.382989 1.000000
vt 0.367124 1.000000
vt 0.351412 1.000000
vt 0.336186 1.000000
vt 0.319894 1.000000
vt 0.305177 1.000000
vt 0.288464 1.000000
vt 0.274072 1.000000
vt 0.257140 1.000000
vt 0.242860 1.000000
vt 0.225928 1.000000
vt 0.211536 1.000000
vt 0.194823 1.000000
vt 0.180106 1.000000
vt 0.163814 1.000000
vt 0.148589 1.000000
vt 0.132876 1.000000
vt 0.117011 1.000000
vt 0.101968 1.000000
vt 0.085420 1.000000
vt 0.071038 1.000000
vt 0.053871 1.000000
vt 0.040025 1.000000
vt 0.022423 1.000000
vt 0.008880 1.000000
vt 0.270292 0.369992
vt 0.250000 0.371991
vt 0.229708 0.369992
vt 0.209760 0.363941
vt 0.190665 0.353735
vt 0.173157 0.339367
vt 0.158150 0.321080
vt 0.146587 0.299448
vt 0.139283 0.275369
vt 0.136784 0.250000
vt 0.139283 0.224631
vt 0.146587 0.200552
vt 0.158150 0.178920
vt 0.173157 0.160633
vt 0.190665 0.146265
vt 0.209760 0.136059
vt 0.229708 0.130008
vt 0.250000 0.128009
vt 0.270292 0.130008
vt 0.290240 0.136059
vt 0.309335 0.146265
vt 0.326843 0.160633
vt 0.341850 0.178920
vt 0.353413 0.200552
vt 0.360717 0.224631
vt 0.363216 0.250000
vt 0.360717 0.275369
vt 0.353413 0.299448
vt 0.341850 0.321080
vt 0.326843 0.339367
vt 0.309335 0.353735
vt 0.290240 0.363941
vn -0.1054 0.0000 -0.9944
vn 0.4985 0.0000 -0.8669
vn 0.6619 0.0000 -0.7496
vn 0.7951 0.0000 -0.6065
vn 0.8956 0.0000 -0.4449
vn 0.9625 0.0000 -0.2714
vn 0.9958 0.0000 -0.0912
vn 0.9958 0.0000 0.0912
vn 0.9625 0.0000 0.2714
vn 0.8956 0.0000 0.4449
vn 0.7951 0.0000 0.6065
vn 0.6619 0.0000 0.7496
vn 0.4985 0.0000 0.8669
vn 0.3103 0.0000 0.9507
vn 0.1054 0.0000 0.9944
vn -0.1054 0.0000 0.9944
vn -0.3103 0.0000 0.9507
vn -0.4985 0.0000 0.8669
vn -0.6619 0.0000 0.7496
vn -0.7951 0.0000 0.6065
vn -0.8956 0.0000 0.4449
vn -0.9625 0.0000 0.2714
vn -0.9958 0.0000 0.0912
vn -0.9958 0.0000 -0.0912
vn -0.9625 0.0000 -0.2714
vn -0.8956 0.0000 -0.4449
vn -0.7951 0.0000 -0.6065
vn -0.6619 0.0000 -0.7496
vn -0.4985 0.0000 -0.8669
vn -0.3103 0.0000 -0.9507
vn 0.1054 0.0000 -0.9944
vn 0.3103 0.0000 -0.9507
vn 0.0000 -1.0000 0.0000
vn 0.0745 0.7071 -0.7032
vn 0.2194 0.7071 -0.6722
vn 0.3525 0.7071 -0.6130
vn 0.4680 0.7071 -0.5301
vn 0.5622 0.7071 -0.4289
vn 0.6333 0.7071 -0.3146
vn 0.6806 0.7071 -0.1919
vn 0.7042 0.7071 -0.0645
vn 0.7042 0.7071 0.0645
vn 0.6806 0.7071 0.1919
vn 0.6333 0.7071 0.3146
vn 0.5622 0.7071 0.4289
vn 0.4680 0.7071 0.5301
vn 0.3525 0.7071 0.6130
vn 0.2194 0.7071 0.6722
vn 0.0745 0.7071 0.7032
vn -0.0745 0.7071 0.7032
vn -0.2194 0.7071 0.6722
vn -0.3525 0.7071 0.6130
vn -0.4680 0.7071 0.5301
vn -0.5622 0.7071 0.4289
vn -0.6333 0.7071 0.3146
vn -0.6806 0.7071 0.1919
vn -0.7042 0.7071 0.0645
vn -0.7042 0.7071 -0.0645
vn -0.6806 0.7071 -0.1919
vn -0.6333 0.7071 -0.3146
vn -0.5622 0.7071 -0.4289
vn -0.4680 0.7071 -0.5301
vn -0.3525 0.7071 -0.6130
vn -0.2194 0.7071 -0.6722
vn -0.0745 0.7071 -0.7032
vn 0.0000 1.0000 -0.0000
usemtl None
s off
f 32/1/1 96/2/1 34/3/1 1/4/1
f 3/5/2 38/6/2 40/7/2 4/8/2
f 4/8/3 40/7/3 42/9/3 5/10/3
f 5/10/4 42/9/4 44/11/4 6/12/4
f 6/12/5 44/11/5 46/13/5 7/14/5
f 7/14/6 46/13/6 48/15/6 8/16/6
f 8/16/7 48/15/7 50/17/7 9/18/7
f 9/18/8 50/17/8 52/19/8 10/20/8
f 10/20/9 52/19/9 54/21/9 11/22/9
f 11/22/10 54/21/10 56/23/10 12/24/10
f 12/24/11 56/23/11 58/25/11 13/26/11
f 13/26/12 58/25/12 60/27/12 14/28/12
f 14/28/13 60/27/13 62/29/13 15/30/13
f 15/30/14 62/29/14 64/31/14 16/32/14
f 16/32/15 64/31/15 66/33/15 17/34/15
f 17/34/16 66/33/16 68/35/16 18/36/16
f 18/36/17 68/35/17 70/37/17 19/38/17
f 19/38/18 70/37/18 72/39/18 20/40/18
f 20/40/19 72/39/19 74/41/19 21/42/19
f 21/42/20 74/41/20 76/43/20 22/44/20
f 22/44/21 76/43/21 78/45/21 23/46/21
f 23/46/22 78/45/22 80/47/22 24/48/22
f 24/48/23 80/47/23 82/49/23 25/50/23
f 25/50/24 82/49/24 84/51/24 26/52/24
f 26/52/25 84/51/25 86/53/25 27/54/25
f 27/54/26 86/53/26 88/55/26 28/56/26
f 28/56/27 88/55/27 90/57/27 29/58/27
f 29/58/28 90/57/28 92/59/28 30/60/28
f 30/60/29 92/59/29 94/61/29 31/62/29
f 31/62/30 94/61/30 96/2/30 32/1/30
f 1/63/31 34/64/31 36/65/31 2/66/31
f 2/66/32 36/65/32 38/6/32 3/5/32
f 1/67/33 2/68/33 3/69/33 4/70/33 5/71/33 6/72/33 7/73/33 8/74/33 9/75/33 10/76/33 11/77/33 12/78/33 13/79/33 14/80/33 15/81/33 16/82/33 17/83/33 18/84/33 19/85/33 20/86/33 21/87/33 22/88/33 23/89/33 24/90/33 25/91/33 26/92/33 27/93/33 28/94/33 29/95/33 30/96/33 31/97/33 32/98/33
f 36/65/34 34/64/34 33/99/34 35/100/34
f 38/6/35 36/65/35 35/101/35 37/102/35
f 40/7/36 38/6/36 37/103/36 39/104/36
f 42/9/37 40/7/37 39/105/37 41/106/37
f 44/11/38 42/9/38 41/107/38 43/108/38
f 46/13/39 44/11/39 43/109/39 45/110/39
f 48/15/40 46/13/40 45/111/40 47/112/40
f 50/17/41 48/15/41 47/113/41 49/114/41
f 52/19/42 50/17/42 49/115/42 51/116/42
f 54/21/43 52/19/43 51/117/43 53/118/43
f 56/23/44 54/21/44 53/119/44 55/120/44
f 58/25/45 56/23/45 55/121/45 57/122/45
f 60/27/46 58/25/46 57/123/46 59/124/46
f 62/29/47 60/27/47 59/125/47 61/126/47
f 64/31/48 62/29/48 61/127/48 63/128/48
f 66/33/49 64/31/49 63/129/49 65/130/49
f 68/35/50 66/33/50 65/131/50 67/132/50
f 70/37/51 68/35/51 67/133/51 69/134/51
f 72/39/52 70/37/52 69/135/52 71/136/52
f 74/41/53 72/39/53 71/137/53 73/138/53
f 76/43/54 74/41/54 73/139/54 75/140/54
f 78/45/55 76/43/55 75/141/55 77/142/55
f 80/47/56 78/45/56 77/143/56 79/144/56
f 82/49/57 80/47/57 79/145/57 81/146/57
f 84/51/58 82/49/58 81/147/58 83/148/58
f 86/53/59 84/51/59 83/149/59 85/150/59
f 88/55/60 86/53/60 85/151/60 87/152/60
f 90/57/61 88/55/61 87/153/61 89/154/61
f 92/59/62 90/57/62 89/155/62 91/156/62
f 94/61/63 92/59/63 91/157/63 93/158/63
f 96/2/64 94/61/64 93/159/64 95/160/64
f 34/3/65 96/2/65 95/161/65 33/162/65
f 35/163/66 33/164/66 95/165/66 93/166/66 91/167/66 89/168/66 87/169/66 85/170/66 83/171/66 81/172/66 79/173/66 77/174/66 75/175/66 73/176/66 71/177/66 69/178/66 67/179/66 65/180/66 63/181/66 61/182/66 59/183/66 57/184/66 55/185/66 53/186/66 51/187/66 49/188/66 47/189/66 45/190/66 43/191/66 41/192/66 39/193/66 37/194/66
