# Blender v2.93.5 OBJ File: ''
# www.blender.org
mtllib road_lines.mtl
o Cube_Cube.001
v -9.866392 0.000000 0.970751
v -9.866392 0.000000 0.970751
v -9.866392 0.000000 -1.020681
v -9.866392 0.000000 -1.020681
v 9.968639 0.000000 0.970751
v 9.968639 0.000000 0.970751
v 9.968639 0.000000 -1.020681
v 9.968639 0.000000 -1.020681
vt 0.375000 0.000000
vt 0.625000 0.000000
vt 0.625000 0.250000
vt 0.375000 0.250000
vt 0.625000 0.500000
vt 0.375000 0.500000
vt 0.625000 0.750000
vt 0.375000 0.750000
vt 0.625000 1.000000
vt 0.375000 1.000000
vt 0.125000 0.500000
vt 0.125000 0.750000
vt 0.875000 0.500000
vt 0.875000 0.750000
vn 0.0000 0.0000 1.0000
vn 0.0000 -1.0000 0.0000
vn 0.0000 1.0000 0.0000
usemtl None
s off
f 1/1/1 2/2/1 4/3/1 3/4/1
f 3/4/1 4/3/1 8/5/1 7/6/1
f 7/6/1 8/5/1 6/7/1 5/8/1
f 5/8/1 6/7/1 2/9/1 1/10/1
f 3/11/2 7/6/2 5/8/2 1/12/2
f 8/5/3 4/13/3 2/14/3 6/7/3
