# Blender v2.93.5 OBJ File: 'Street_Light.blend'
# www.blender.org
mtllib Street_Light.mtl
o Cube
v -0.714721 1.000000 0.714721
v 1.000000 -1.000000 -1.000000
v -0.714721 1.000000 -0.714721
v 1.000000 -1.000000 1.000000
v 0.714721 1.000000 0.714721
v -1.000000 -1.000000 -1.000000
v 0.714721 1.000000 -0.714721
v -1.000000 -1.000000 1.000000
v 1.000000 1.000000 1.000000
v -1.000000 1.000000 1.000000
v 1.000000 1.000000 -1.000000
v -1.000000 1.000000 -1.000000
v -0.359557 1.585883 -0.359557
v 0.359557 1.585883 -0.359557
v -0.359557 1.585883 0.359557
v 0.359557 1.585883 0.359557
v -0.714721 1.585883 -0.714721
v 0.714721 1.585883 -0.714721
v -0.714721 1.585883 0.714721
v 0.714721 1.585883 0.714721
v -0.359557 1.636575 -0.359557
v 0.359557 1.636575 -0.359557
v -0.359557 1.636575 0.359557
v 0.359557 1.636575 0.359557
v -0.359557 4.612803 -0.359557
v 0.359557 4.612803 -0.359557
v -0.359557 4.612803 0.359557
v 0.359557 4.612803 0.359557
v -0.359557 11.180897 -0.359557
v 0.359557 11.180897 -0.359557
v -0.359557 11.180897 0.359557
v 0.359557 11.180897 0.359557
v -0.359557 15.793808 -0.359557
v 0.359557 15.793808 -0.359557
v -0.359557 15.793808 0.359557
v 0.359557 15.793808 0.359557
v -0.359557 15.793808 -0.359557
v 0.359557 15.793808 -0.359557
v -0.342133 15.793808 0.359557
v 0.359557 15.793808 0.359557
v -0.359557 15.990599 -0.359557
v 0.359557 15.990599 -0.359557
v -0.342133 16.316936 0.359557
v 0.359557 16.316936 0.359557
v 0.359557 15.793808 4.616692
v -0.342133 15.793808 4.616692
v 0.359557 16.316936 4.616692
v -0.342133 16.316936 4.616692
v 0.359557 15.793808 7.618151
v -0.359557 15.793808 7.618151
v 0.359557 15.990599 7.618151
v -0.359557 15.990599 7.618151
v 0.791014 15.793808 4.616692
v 0.791014 15.990599 4.616692
v 0.791014 15.793808 7.618151
v 0.791014 15.990599 7.618151
v -0.698361 15.990599 4.616692
v -0.698361 15.793808 4.616692
v -0.698361 15.990599 7.618151
v -0.698361 15.793808 7.618151
v -0.793177 15.990599 4.616692
v -0.793177 15.793808 4.616692
v -0.793177 15.990599 7.618151
v -0.793177 15.793808 7.618151
vt 0.839340 0.714340
vt 0.660660 0.714340
vt 0.660660 0.714340
vt 0.839340 0.714340
vt 0.375000 0.750000
vt 0.625000 0.750000
vt 0.625000 1.000000
vt 0.375000 1.000000
vt 0.375000 0.000000
vt 0.625000 0.000000
vt 0.625000 0.250000
vt 0.375000 0.250000
vt 0.125000 0.500000
vt 0.375000 0.500000
vt 0.125000 0.750000
vt 0.625000 0.500000
vt 0.839340 0.535660
vt 0.660660 0.535660
vt 0.875000 0.750000
vt 0.875000 0.500000
vt 0.705055 0.669945
vt 0.705055 0.580055
vt 0.705055 0.580055
vt 0.705055 0.669945
vt 0.839340 0.535660
vt 0.660660 0.535660
vt 0.794945 0.580055
vt 0.794945 0.669945
vt 0.794945 0.669945
vt 0.705055 0.669945
vt 0.794945 0.669945
vt 0.794945 0.580055
vt 0.705055 0.580055
vt 0.705055 0.580055
vt 0.705055 0.669945
vt 0.794945 0.580055
vt 0.794945 0.580055
vt 0.794945 0.580055
vt 0.705055 0.580055
vt 0.794945 0.669945
vt 0.705055 0.669945
vt 0.705055 0.580055
vt 0.705055 0.669945
vt 0.794945 0.669945
vt 0.794945 0.669945
vt 0.705055 0.669945
vt 0.794945 0.669945
vt 0.794945 0.580055
vt 0.794945 0.669945
vt 0.705055 0.669945
vt 0.705055 0.580055
vt 0.794945 0.580055
vt 0.705055 0.669945
vt 0.705055 0.669945
vt 0.705055 0.669945
vt 0.794945 0.669945
vt 0.794945 0.669945
vt 0.705055 0.669945
vt 0.705055 0.669945
vt 0.794945 0.669945
vt 0.794945 0.669945
vt 0.794945 0.669945
vt 0.705055 0.669945
vt 0.705055 0.669945
vt 0.794945 0.669945
vt 0.794945 0.669945
vt 0.794945 0.669945
vt 0.794945 0.669945
vt 0.794945 0.669945
vt 0.794945 0.669945
vn 0.0000 0.0000 1.0000
vn -1.0000 0.0000 0.0000
vn 0.0000 -1.0000 0.0000
vn 1.0000 0.0000 0.0000
vn 0.0000 0.0000 -1.0000
vn 0.0000 1.0000 0.0000
vn 0.0000 0.9106 -0.4132
vn -0.9997 0.0000 0.0242
vn 0.0000 0.9941 0.1081
vn 0.3533 0.9341 0.0508
vn -0.4245 0.9041 0.0479
usemtl initialShadingGroup_wood_texture.jpg
s off
f 1/1/1 5/2/1 20/3/1 19/4/1
f 4/5/1 9/6/1 10/7/1 8/8/1
f 8/9/2 10/10/2 12/11/2 6/12/2
f 6/13/3 2/14/3 4/5/3 8/15/3
f 2/14/4 11/16/4 9/6/4 4/5/4
f 6/12/5 12/11/5 11/16/5 2/14/5
f 3/17/6 7/18/6 10/19/6 9/6/6
f 1/1/6 3/17/6 9/6/6 11/16/6
f 7/18/6 5/2/6 12/20/6 10/19/6
f 5/2/6 1/1/6 11/16/6 12/20/6
f 16/21/4 14/22/4 22/23/4 24/24/4
f 3/17/2 1/1/2 19/4/2 17/25/2
f 5/2/4 7/18/4 18/26/4 20/3/4
f 7/18/5 3/17/5 17/25/5 18/26/5
f 13/27/6 14/22/6 18/26/6 17/25/6
f 15/28/6 13/27/6 17/25/6 19/4/6
f 14/22/6 16/21/6 20/3/6 18/26/6
f 16/21/6 15/28/6 19/4/6 20/3/6
f 23/29/1 24/24/1 28/30/1 27/31/1
f 14/22/5 13/27/5 21/32/5 22/23/5
f 15/28/1 16/21/1 24/24/1 23/29/1
f 13/27/2 15/28/2 23/29/2 21/32/2
f 28/30/4 26/33/4 30/34/4 32/35/4
f 21/32/2 23/29/2 27/31/2 25/36/2
f 24/24/4 22/23/4 26/33/4 28/30/4
f 22/23/5 21/32/5 25/36/5 26/33/5
f 30/34/5 29/37/5 33/38/5 34/39/5
f 26/33/5 25/36/5 29/37/5 30/34/5
f 27/31/1 28/30/1 32/35/1 31/40/1
f 25/36/2 27/31/2 31/40/2 29/37/2
f 36/41/1 34/39/1 38/42/1 40/43/1
f 31/40/1 32/35/1 36/41/1 35/44/1
f 29/37/2 31/40/2 35/44/2 33/38/2
f 32/35/4 30/34/4 34/39/4 36/41/4
f 39/45/3 40/43/3 45/46/3 46/47/3
f 34/39/1 33/38/1 37/48/1 38/42/1
f 35/44/5 36/41/5 40/43/5 39/45/5
f 33/38/6 35/44/6 39/45/6 37/48/6
f 43/49/7 44/50/7 42/51/7 41/52/7
f 37/48/8 39/45/8 43/49/8 41/52/8
f 40/43/4 38/42/4 42/51/4 44/50/4
f 38/42/5 37/48/5 41/52/5 42/51/5
f 45/46/5 47/53/5 54/54/5 53/55/5
f 40/43/4 44/50/4 47/53/4 45/46/4
f 43/49/2 39/45/2 46/47/2 48/56/2
f 44/50/6 43/49/6 48/56/6 47/53/6
f 50/57/1 49/58/1 51/59/1 52/60/1
f 46/47/3 45/46/3 49/58/3 50/57/3
f 50/57/1 52/60/1 59/61/1 60/62/1
f 47/53/9 48/56/9 52/60/9 51/59/9
f 53/55/4 54/54/4 56/63/4 55/64/4
f 49/58/3 45/46/3 53/55/3 55/64/3
f 47/53/10 51/59/10 56/63/10 54/54/10
f 51/59/1 49/58/1 55/64/1 56/63/1
f 57/65/5 58/66/5 62/67/5 61/68/5
f 48/56/5 46/47/5 58/66/5 57/65/5
f 46/47/3 50/57/3 60/62/3 58/66/3
f 52/60/11 48/56/11 57/65/11 59/61/11
f 61/68/2 62/67/2 64/69/2 63/70/2
f 59/61/6 57/65/6 61/68/6 63/70/6
f 60/62/1 59/61/1 63/70/1 64/69/1
f 58/66/3 60/62/3 64/69/3 62/67/3
